<svg xmlns="http://www.w3.org/2000/svg">
	<style>
        .st0{fill:none;stroke:#ED6028;stroke-width:11;stroke-miterlimit:10;}
        .st1{fill:none;stroke:#ED6028;stroke-width:10;stroke-miterlimit:10;}
        .st2{fill:#F7941D;stroke:#F7941D;stroke-width:8;stroke-linejoin:round;stroke-miterlimit:10;}
        .st3{fill:none;stroke:#ED6028;stroke-width:11;stroke-linejoin:round;stroke-miterlimit:10;}
        .st4{fill:#F7941D;}
        .st5{fill:#FFFFFF;}
        .st6{fill:#ED6028;}
        .st7{fill:#ED6028;stroke:#ED6028;stroke-width:11;stroke-linecap:round;stroke-miterlimit:10;}
	</style>
	<g>
		<path class="st0" d="M286.1,59.3h55c6.6,0,12,5.4,12,12v214.5c0,6.6-5.4,12-12,12H51c-6.6,0-12-5.4-12-12V71.3c0-6.6,5.4-12,12-12
			h52.6"/>
		<line class="st0" x1="153.7" y1="59.3" x2="236.4" y2="59.3"/>
		<path class="st1" d="M276,79.5c0.7,7.9-6.3,14.5-14.5,14.8c-8.7,0.3-16.4-6.5-15.7-14.8c0-13.7,0-27.4,0-41.1
			c-0.2-7.4,6.5-13.6,14.8-13.7c8.5-0.2,15.7,6.1,15.5,13.7C276,52.1,276,65.8,276,79.5z"/>
		<path class="st1" d="M143.8,78.6c0.7,7.9-6.3,14.5-14.5,14.8c-8.7,0.3-16.4-6.5-15.7-14.8c0-13.7,0-27.4,0-41.1
			c-0.2-7.4,6.5-13.6,14.8-13.7c8.5-0.2,15.7,6.1,15.5,13.7C143.8,51.3,143.8,65,143.8,78.6z"/>
		<g>
			<rect x="-554.3" y="-38.9" class="st2" width="38.9" height="38.9"/>
			<rect x="-609" y="-38.9" class="st2" width="38.9" height="38.9"/>
			<rect x="-496.9" y="-38.9" class="st2" width="38.9" height="38.9"/>
			<rect x="-439.7" y="-38.9" class="st2" width="38.9" height="38.9"/>
			<rect x="-382.5" y="-38.9" class="st2" width="38.9" height="38.9"/>
		</g>
		<g>
			<rect x="-553.5" y="-95.3" class="st2" width="38.9" height="38.9"/>
			<rect x="-608.2" y="-95.3" class="st2" width="38.9" height="38.9"/>
			<rect x="-496.1" y="-95.3" class="st2" width="38.9" height="38.9"/>
			<rect x="-438.9" y="-95.3" class="st2" width="38.9" height="38.9"/>
			<rect x="-381.7" y="-95.3" class="st2" width="38.9" height="38.9"/>
		</g>
		<g>
			<rect x="-553.2" y="-151.1" class="st2" width="38.9" height="38.9"/>
			<rect x="-495.7" y="-151.1" class="st2" width="38.9" height="38.9"/>
			<rect x="-438.5" y="-151.1" class="st2" width="38.9" height="38.9"/>
			<rect x="-381.4" y="-151.1" class="st2" width="38.9" height="38.9"/>
		</g>
		<line class="st3" x1="39" y1="111.1" x2="353.2" y2="111.1"/>
		<g>
			<g>
				<path class="st4" d="M-522.5,215.4c-2.2,0-4-1.8-4-4v-14.9c-11.3-0.8-22.7-4-30-8.6c-1.6-1-2.3-3.1-1.6-4.9l5-12.4
					c0.4-1.1,1.3-1.9,2.4-2.3c0.4-0.1,0.9-0.2,1.3-0.2c0.7,0,1.4,0.2,2,0.6c7.9,4.7,18.1,7.4,27.9,7.4c12.2,0,20.8-5.8,20.8-14.1
					c0-7.6-6-12.9-20.9-18.3c-19.2-6.7-37-15.7-37-35.8c0-16.5,12.2-29.2,31.4-33.1V59.5c0-2.2,1.8-4,4-4h12.9c2.2,0,4,1.8,4,4v14.1
					c9.4,0.7,17.6,2.9,24.9,6.7c1.9,1,2.6,3.2,1.8,5.1l-5.2,12.2c-0.4,1-1.3,1.8-2.3,2.2c-0.4,0.2-0.9,0.2-1.4,0.2
					c-0.6,0-1.2-0.1-1.8-0.4c-3.4-1.8-11.5-5.9-24.4-5.9c-13.3,0-18,6.4-18,11.9c0,6.7,5.4,10.8,23.2,17.3
					c17.2,6.2,34.9,15.6,34.9,37.6c0,14.3-10.2,30.2-32.9,34.8v15.9c0,2.2-1.8,4-4,4H-522.5z"/>
				<path class="st5" d="M-508.2,59.5v17.9c12.5,0.4,21,3.3,27,6.5l-5.2,12.2c-4.4-2.2-12.9-6.3-26.2-6.3c-16,0-22,8.5-22,15.9
					c0,9.6,7.7,14.4,25.8,21.1c21.4,7.8,32.2,17.4,32.2,33.9c0,14.6-11.4,28.3-32.9,31.4v19.2h-13.1v-18.7
					c-12.1-0.2-24.5-3.5-31.8-8.1l5-12.4c7.5,4.4,18.3,8,30,8c14.8,0,24.8-7.6,24.8-18.1c0-10.2-8.1-16.5-23.5-22
					c-21.2-7.4-34.3-15.9-34.3-32c0-15.4,12.3-27,31.4-29.8V59.5H-508.2 M-508.2,51.5h-12.9c-4.4,0-8,3.6-8,8v12.2
					c-8.1,2.1-15.1,5.8-20.4,10.9c-7.2,6.8-11,15.6-11,25.4c0,22.6,20,32.7,39.6,39.5c18.2,6.6,18.2,11.9,18.2,14.5
					c0,6-6.9,10.1-16.8,10.1c-9,0-18.7-2.6-25.9-6.8c-1.2-0.7-2.7-1.1-4.1-1.1c-0.9,0-1.7,0.1-2.6,0.4c-2.2,0.7-4,2.4-4.9,4.6
					l-5,12.4c-1.4,3.6-0.1,7.7,3.1,9.7c6.9,4.4,17.4,7.7,28.1,8.9v11.2c0,4.4,3.6,8,8,8h13.1c4.4,0,8-3.6,8-8v-12.7
					c22.6-5.9,32.9-22.8,32.9-38c0-24.6-20-35-37.5-41.4c-19-7-20.5-10.2-20.5-13.6c0-4.8,5.5-7.9,14-7.9c11.9,0,19.4,3.8,22.6,5.4
					c1.1,0.6,2.4,0.9,3.6,0.9c0.9,0,1.8-0.2,2.7-0.5c2.1-0.8,3.8-2.3,4.6-4.4l5.2-12.2c1.6-3.8,0-8.3-3.7-10.2
					c-6.8-3.6-14.3-5.8-22.7-6.8V59.5C-500.2,55-503.8,51.5-508.2,51.5L-508.2,51.5z"/>
			</g>
		</g>
		<g>
			<path class="st6" d="M158.1,254.5c0.7-2.8,3.6-4.2,6.3-3.1c7.1,3.1,16.5,5,25.6,4.9c14.6-0.1,24.6-7.8,24.9-17.2
				c0.1-3.6-0.6-6.8-2-9.7c0,0-1.5-3.2-3.7-6c-4.3-5.4-20-11.6-20-11.6c-11.1-4.4-20.4-8.1-26.8-16.5c-7-9.2-7.1-19.7-7.1-21.4
				c0-2,0.2-8.1,3.2-14.4c6-12.2,22.5-20.3,40.8-20.3c10.7,0,18.9,2,24.7,4.5c2.1,0.9,3.2,3.2,2.6,5.3l-2.2,8.3
				c-0.7,2.7-3.6,4.1-6.1,3c-4.7-1.9-11.3-3.8-19.5-3.8c-11.8,0-17.7,4.8-20.9,10.5c-2,3.6-1.3,7.4-1.3,8.6c0,2.5-0.4,7.9,7.5,12.8
				c5.2,3.2,14.3,6.1,18.8,8.2c8.5,3.9,13.8,7.3,17.9,11.1c3.3,3,5.4,5.6,5.8,6.2c2.1,2.7,5.9,8.4,7.6,15.8
				c0.4,1.7,3.3,15.3-4.2,27.4c-10.3,16.6-34.8,17.5-42,17.5c-10.6,0-22.1-2.7-29.4-6.3c-1.9-0.9-2.9-3.1-2.4-5.1L158.1,254.5z"/>
		</g>
		<line class="st7" x1="195" y1="128.7" x2="195" y2="283.6"/>
	</g>
</svg>
