<svg xmlns="http://www.w3.org/2000/svg" viewBox="0 0 471.6 487.8">
	<style type="text/css">
    .st0{fill:#ED6028;}
    .st1{fill:#FFFFFF;}
	</style>
	<g>
		<path class="st0" d="M358.4,349.1c-0.3,18,3.8,39.5-18.5,76.6c-27.5,45.9-85.7,48.3-101.3,48.5c-14.9,0.2-78.1,0.8-103.5-46.7
		c-17.2-32.2-16.3-50-17-61.8c-1.4-25.4,4.7-50.1,6.6-57.8c2.8-11.8,6.8-23.8,7.4-25.5c1.7-5,4.8-14.4,9.8-25.6
		c4.6-10.2,8.7-17.6,12.4-24.2c17.5-31,22.8-40.1,31.3-55.9c8.2-15.3,13.1-27,18.5-39.8c17.9-42.9,28.1-88.3,34.5-118.7
		c2.9,19.9,9.3,65.3,22.2,105.3c8,24.6,14.7,37.1,17.6,42.2c2.9,5.2,19.2,31.7,24.3,38.4c2.3,3,10.1,14.6,13.6,19.7
		c6.8,10,13.6,20.4,21,35.9c9,18.9,13.1,34.5,14.2,38.9C353.4,306.6,358.8,326.1,358.4,349.1z"/>
		<path class="st1" d="M292,240.5c4.8-1.8,9.6-3.6,14.3-5.3c3.8,4,12.1,13.4,16,20.4c9.5,17.4,10.1,27.2,9.9,35.3
		c-1.5-7.6-5.6-16.3-18-30.9C307.7,252.5,297,243.6,292,240.5z"/>
	</g>
</svg>
