<svg xmlns="http://www.w3.org/2000/svg" viewBox="0 0 471.6 487.8">
	<style type="text/css">
	.st0{fill:#ED6028;}
	.st1{fill:none;}
	</style>
	<g>
		<path class="st0" d="M150.4,183.2c-7.8,3.5-16.2,5.3-25.3,5.3c-34.5,0-62.5-28-62.5-62.5c0-34.5,28-62.5,62.5-62.5
			c34.5,0,62.5,28,62.5,62.5c0,9.1-2,17.7-5.5,25.5l0-0.1l33.2,33.2l0.2,0.1l7.9-13c1.2-2,1-4.6-0.6-6.4l-5.1-5.6
			c-6.6-7.3-3.8-18.9,5.3-22.4l7.1-2.7c2.2-0.9,3.6-3.1,3.4-5.4l-1.9-24c-0.2-2.4-1.9-4.3-4.2-4.8L220,99c-9.6-2-14.2-13-8.9-21.3
			l4.1-6.3c1.3-2,1.1-4.6-0.4-6.4l-15.7-18.3c-1.5-1.8-4.1-2.4-6.2-1.4l-6.9,3.1c-9,4-19.2-2.2-19.7-12l-0.4-7.6
			c-0.1-2.4-1.8-4.3-4.1-4.9l-23.4-5.6c-2.3-0.5-4.7,0.5-5.9,2.5l-3.8,6.6c-4.9,8.5-16.8,9.5-23,1.9l-4.8-5.9
			c-1.5-1.8-4-2.5-6.2-1.6l-22.3,9.3c-2.2,0.9-3.5,3.1-3.3,5.5l0.8,7.5c1.1,9.8-8,17.5-17.5,15l-7.3-2c-2.3-0.6-4.7,0.4-5.9,2.4
			L26.8,80.2c-1.2,2-1,4.6,0.6,6.4l5.1,5.6c6.6,7.3,3.8,18.9-5.3,22.4l-7.1,2.7c-2.2,0.8-3.6,3-3.4,5.4l2,24
			c0.2,2.4,1.9,4.3,4.2,4.8l7.4,1.5c9.6,2,14.2,13,8.9,21.3l-4.1,6.4c-1.3,2-1.1,4.6,0.4,6.4l15.7,18.3c1.5,1.8,4.1,2.3,6.2,1.4
			l6.9-3.1c9-4,19.2,2.2,19.7,12l0.4,7.6c0.1,2.4,1.8,4.4,4.1,4.9l23.5,5.6c2.3,0.5,4.7-0.5,5.8-2.5l3.8-6.6
			c4.9-8.5,16.8-9.5,23-1.9l4.8,5.9c1.5,1.8,4,2.5,6.2,1.6l22.3-9.3c2.2-0.9,3.5-3.1,3.3-5.5l-0.2-1.7"/>
		<g>
			<path class="st0" d="M254.9,203.7c10.3,10.3,13.2,25,8.9,37.9c-7-6.5-13-12-20.7-19.9c-5.9-6-13.5-5-20.1,1.7
				c-6.5,6.8-7.7,15.7-1.5,22.2c6.1,6.3,13.1,12.7,19.8,19c-13.1,4.7-28.3,1.9-38.8-8.6c-11.6-11.6-15.9-26.9-8.9-40.8l-52.9-52.9
				c-13.9,7-29.2,2.7-40.8-8.9c-10.3-10.3-13.2-25-8.9-37.9c7,6.5,13,12,20.7,19.8c5.9,6,15.4,3,21.1-2.8c6.6-6.6,6.7-14.7,0.4-21.1
				c-6.1-6.3-13.1-12.7-19.8-19c13.1-4.7,28.3-1.9,38.8,8.6c11.6,11.6,15.9,26.9,8.9,40.8l52.9,52.9
				C227.9,187.8,243.3,192.1,254.9,203.7z"/>
		</g>
		<path class="st1" d="M150.4,183.2l30.4,30.4L150.4,183.2z"/>
		<path class="st1" d="M182.2,151.5l33.4,33.3L182.2,151.5z"/>
		<path class="st1" d="M150.4,183.2l30.4,30.4L150.4,183.2z"/>
		<line class="st1" x1="182.2" y1="151.5" x2="215.5" y2="184.8"/>
	</g>
</svg>
