<svg xmlns="http://www.w3.org/2000/svg" viewBox="0 0 471.6 487.8">
	<g>
		<rect class="st0" width="335.3" height="455.4"/>
		<g>
			<linearGradient id="SVGID_1_" gradientUnits="userSpaceOnUse" x1="168.5918" y1="-22.8548" x2="181.0053" y2="718.0035">
				<stop offset="0.2178" style="stop-color:#BE1E2D"/>
				<stop offset="0.2318" style="stop-color:#C0222C"/>
				<stop offset="0.3994" style="stop-color:#D44B27"/>
				<stop offset="0.5635" style="stop-color:#E36B23"/>
				<stop offset="0.7213" style="stop-color:#EE8120"/>
				<stop offset="0.8699" style="stop-color:#F58F1E"/>
				<stop offset="1" style="stop-color:#F7941D"/>
			</linearGradient>
			<path class="st1" d="M282.1,334.6c-1.5,14.3-2.7,25.6-8.9,39.2c-6.9,15.3-16.3,24.9-21.6,30.3c-9.6,9.7-19.3,16.1-26.9,20.3
				c0,0-27.3,14-68.8,10c-2.1-0.2-4.2-0.5-4.2-0.5c-0.2,0-0.3,0-0.4-0.1c-12.3-1.7-39.4-7.6-60.5-30.8
				c-15.6-17.2-20.6-35.8-22.3-42.2c-4.4-17.1-3.1-31.1-1.7-46.8c1.4-15.6,4.4-27.6,6.8-37.2c4.6-18.3,10.9-31.5,12.3-35
				c5.8-14.3,11.3-23.1,18.6-35.7c19.8-34.6,28.7-52.8,30.5-55.8c13.2-21.7,35.4-66.2,45.5-131.5c4.2,49.7-6.8,86.3-15.6,109.3
				c-3.8,10-12.9,31.9-20.5,49.4c-14.8,34.2-17.8,38.2-23.5,54.9c-5.6,16.5-14.2,33.9-16.9,59.1c-2.7,25.4-3.7,51.3,14.5,70.5
				c3,3.2,14.3,12.6,30.4,17.9c5.4,1.8,25.8,4.3,38.8,0.6c4.5-1.3,12.1-6,18.2-14.5c9.8-13.6,8.2-28.8,7.6-34.4
				c-0.4-3.6-5.7-20-14.7-34c-10.9-17-25.4-24.4-33.1-38.7c-16.9-31.3,8.4-65.4,8.4-65.4s-8.3,26.5,5.4,49.5
				c8.2,13.8,24.1,22.1,38,36.4c7.3,7.5,12.2,14.1,17.2,23.9c8,15.8,8,27.4,10.8,27.3c4-0.1,7.2-4.8,7.5-22.3
				c0.2-17.4-5.5-38.8-8.1-48.6c-6.6-17.1-12.9-30.4-18-39.5c-10.6-19-15.9-28.2-28.7-50.3c-11.2-19.2-14.9-33.8-18-47.5
				c-4.5-19.6,1.3-45.9,4.3-56.9c0.5,9.7-0.6,33.5,6,49.9c3.4,8.4,6,22.2,27.1,51c23.4,31.8,22.1,31.5,22.7,32.3
				c10.3,15.7,18.6,28.4,25.8,46.5c4.9,12.3,8.2,21.7,11.9,35.6c1.3,5,3.4,13.3,4.5,22.7C284,316.6,283,326.8,282.1,334.6z"/>
			<linearGradient id="SVGID_2_" gradientUnits="userSpaceOnUse" x1="251.4644" y1="411.2806" x2="251.4644" y2="411.2806">
				<stop offset="0.1825" style="stop-color:#BE1E2D"/>
				<stop offset="0.2537" style="stop-color:#C52D2B"/>
				<stop offset="0.4902" style="stop-color:#DB5925"/>
				<stop offset="0.7018" style="stop-color:#EA7921"/>
				<stop offset="0.879" style="stop-color:#F48D1E"/>
				<stop offset="1" style="stop-color:#F7941D"/>
			</linearGradient>
			<path class="st2" d="M251.5,411.3"/>
		</g>
	</g>
</svg>
