<svg xmlns="http://www.w3.org/2000/svg" viewBox="0 0 471.6 487.8">
	<style type="text/css">
	.st0{fill:#231F20;}
	.st1{fill:url(#SVGID_1_);}
	.st2{fill:url(#SVGID_2_);}
	</style>
	<g>
		<path class="st0" d="M256,327.9c-0.3,18-0.9,55.8-26.3,87.6c-33.4,41.8-85.7,45.3-101.3,45.5c-14.9,0.2-70.2-1.3-103.5-43.7
			c-22.2-28.2-24.1-61-24.7-72.8c-1.5-25.4,5-50.1,7-57.8c3-11.8,7.3-23.8,7.9-25.5c1.8-5,5.1-14.4,10.5-25.6
			c4.8-10.2,9.2-17.6,13.2-24.2c18.6-31,24.3-40.1,33.3-55.9c8.7-15.3,13.9-27,19.7-39.8C110.9,72.8,122.1,30.4,128.5,0
			c2.9,19.9,9.9,62.3,23.7,102.3c8.5,24.6,15.6,37.1,18.7,42.2c3.1,5.2,20.5,31.7,25.8,38.4c2.4,3,10.8,14.6,14.4,19.7
			c7.2,10,14.4,20.4,22.3,35.9c9.6,18.9,14,34.5,15.2,38.9C250.7,285.5,256.4,304.9,256,327.9z"/>
		<g>
			<linearGradient id="SVGID_1_" gradientUnits="userSpaceOnUse" x1="122.489" y1="462.1857" x2="134.9059" y2="-278.8816" gradientTransform="matrix(1 0 0 -1 0 444.724)">
				<stop offset="0.2178" style="stop-color:#BE1E2D"/>
				<stop offset="0.2318" style="stop-color:#C0222C"/>
				<stop offset="0.3994" style="stop-color:#D44B27"/>
				<stop offset="0.5635" style="stop-color:#E36B23"/>
				<stop offset="0.7213" style="stop-color:#EE8120"/>
				<stop offset="0.8699" style="stop-color:#F58F1E"/>
				<stop offset="1" style="stop-color:#F7941D"/>
			</linearGradient>
			<path class="st1" d="M236.1,340.1c-1.5,14.3-2.7,25.6-8.9,39.2c-6.9,15.3-16.3,24.9-21.6,30.3c-9.6,9.7-19.3,16.1-26.9,20.3
				c0,0-27.3,14-68.8,10c-2.1-0.2-4.2-0.5-4.2-0.5c-0.2,0-0.3,0-0.4-0.1c-12.3-1.7-39.4-7.6-60.5-30.8
				c-15.6-17.2-20.6-35.8-22.3-42.2c-4.4-17.1-3.1-31.1-1.7-46.8c1.4-15.6,4.4-27.6,6.8-37.2c4.6-18.3,10.9-31.5,12.3-35
				c5.8-14.3,11.3-23.1,18.6-35.7C78.3,177,87.2,158.8,89,155.8c13.2-21.6,28.4-66.2,38.5-131.4c4.2,49.7-4.1,80.9-11.6,109.3
				c-2.7,10.4-9.9,31.9-17.5,49.4c-14.8,34.2-17.8,38.2-23.5,54.9c-5.6,16.5-14.2,33.9-16.9,59.1c-2.7,25.4-3.7,51.3,14.5,70.5
				c3,3.2,14.3,12.6,30.4,17.9c5.4,1.8,25.8,4.3,38.8,0.6c4.5-1.3,12.1-6,18.2-14.5c9.8-13.6,8.2-28.8,7.6-34.4
				c-0.4-3.6-5.7-20-14.7-34c-10.9-17-25.4-24.4-33.1-38.7c-16.9-31.3,8.4-65.4,8.4-65.4s-8.3,26.5,5.4,49.5
				c8.2,13.8,24.1,22.1,38,36.4c7.3,7.5,12.2,14.1,17.2,23.9c8,15.8,8,27.4,10.8,27.3c4-0.1,7.2-4.8,7.5-22.3
				c0.2-17.4-5.5-38.8-8.1-48.6c-6.6-17.1-12.9-30.4-18-39.5c-10.6-19-15.9-28.2-28.7-50.3c-11.2-19.2-14.9-33.8-18-47.5
				c-4.5-19.6-5.7-45.9-2.8-56.9c0.5,9.7,6.4,33.5,13,49.9c3.4,8.4,6,22.2,27.1,51c23.4,31.8,22.1,31.5,22.7,32.3
				c10.3,15.7,18.6,28.4,25.8,46.5c4.9,12.3,8.2,21.7,11.9,35.6c1.3,5,3.4,13.3,4.5,22.7C237.9,322.2,236.9,332.3,236.1,340.1z"/>

			<linearGradient id="SVGID_2_" gradientUnits="userSpaceOnUse" x1="205.4226" y1="27.924" x2="205.4226" y2="27.924" gradientTransform="matrix(1 0 0 -1 0 444.724)">
				<stop offset="0.1825" style="stop-color:#BE1E2D"/>
				<stop offset="0.2537" style="stop-color:#C52D2B"/>
				<stop offset="0.4902" style="stop-color:#DB5925"/>
				<stop offset="0.7018" style="stop-color:#EA7921"/>
				<stop offset="0.879" style="stop-color:#F48D1E"/>
				<stop offset="1" style="stop-color:#F7941D"/>
			</linearGradient>
			<path class="st2" d="M205.4,416.8"/>
		</g>
	</g>
</svg>
