<svg xmlns="http://www.w3.org/2000/svg" viewBox="0 0 471.6 487.8">
	<style type="text/css">
	.st0{fill:none;stroke:#ED6028;stroke-width:11;stroke-linecap:round;stroke-miterlimit:10;}
	</style>
	<g>
		<g>
			<line class="st0" x1="143.1" y1="14.9" x2="143.1" y2="287"/>
			<line class="st0" x1="260.9" y1="82.9" x2="25.2" y2="219"/>
			<line class="st0" x1="25.2" y1="82.9" x2="260.9" y2="219"/>
		</g>
		<g>
			<line class="st0" x1="191" y1="44.9" x2="142.8" y2="72.8"/>
			<line class="st0" x1="94.5" y1="44.9" x2="142.8" y2="72.8"/>
		</g>
		<g>
			<line class="st0" x1="94.8" y1="260.6" x2="143.1" y2="232.8"/>
			<line class="st0" x1="191.3" y1="260.6" x2="143.1" y2="232.7"/>
		</g>
		<g>
			<line class="st0" x1="261.1" y1="138.9" x2="212.8" y2="111"/>
			<line class="st0" x1="212.8" y1="55.3" x2="212.8" y2="111.1"/>
		</g>
		<g>
			<line class="st0" x1="25.5" y1="163.1" x2="73.8" y2="191"/>
			<line class="st0" x1="73.8" y1="246.7" x2="73.8" y2="190.9"/>
		</g>
		<g>
			<line class="st0" x1="73.7" y1="55.2" x2="73.7" y2="110.9"/>
			<line class="st0" x1="25.5" y1="138.8" x2="73.8" y2="110.9"/>
		</g>
		<g>
			<line class="st0" x1="212.8" y1="246.9" x2="212.8" y2="191.2"/>
			<line class="st0" x1="261.1" y1="163.3" x2="212.8" y2="191.2"/>
		</g>
	</g>
</svg>
